<?xml version="1.0" standalone="no"?>
<!DOCTYPE svg PUBLIC "-//W3C//DTD SVG 1.1//EN" "http://www.w3.org/Graphics/SVG/1.1/DTD/svg11.dtd" >
<svg xmlns="http://www.w3.org/2000/svg" xmlns:xlink="http://www.w3.org/1999/xlink" version="1.1">
<metadata></metadata>
<defs>
<font id="axiformablack_italic" horiz-adv-x="843" >
<font-face units-per-em="1000" ascent="774" descent="-226" />
<missing-glyph horiz-adv-x="250" />
<glyph horiz-adv-x="0" />
<glyph horiz-adv-x="333" />
<glyph horiz-adv-x="130" />
<glyph horiz-adv-x="130" />
<glyph unicode="&#xd;" horiz-adv-x="333" />
<glyph unicode=" "  horiz-adv-x="250" />
<glyph unicode="&#x09;" horiz-adv-x="250" />
<glyph unicode="&#xa0;" horiz-adv-x="250" />
<glyph unicode="!" horiz-adv-x="338" d="M250 225h-158l69 538h182zM137 -12q-42 0 -66 27t-19 69q5 41 35.5 67.5t71.5 26.5q43 0 67.5 -29.5t16.5 -71.5q-7 -39 -37 -64t-69 -25z" />
<glyph unicode="&#x22;" horiz-adv-x="620" d="M232 413h-175l141 323h203zM525 413h-175l141 323h203z" />
<glyph unicode="#" horiz-adv-x="778" d="M806 587l-51 -148h-96l-47 -136h97l-50 -149h-97l-53 -154h-181l54 154h-92l-54 -154h-182l56 154h-89l53 149h91l49 136h-94l51 148h97l56 152h173l-54 -152h92l54 152h172l-52 -152h97zM343 303h92l48 136h-92z" />
<glyph unicode="$" horiz-adv-x="615" d="M498 391q96 -71 78 -187q-12 -80 -68 -133.5t-141 -74.5l-19 -108h-171l19 108q-121 31 -181 141l131 119q24 -42 64 -67.5t84 -25.5q31 0 52 14t25 38q4 32 -43 61l-59 31q-48 25 -75 44q-102 71 -84 192q12 77 65.5 130.5t135.5 71.5l18 98h171l-18 -101 q76 -20 144 -84l-111 -137q-76 59 -141 59q-66 0 -73 -48q-1 -20 13.5 -34t56.5 -34q95 -50 127 -73z" />
<glyph unicode="%" horiz-adv-x="916" d="M250 382q-82 0 -131 55q-48 55 -36 132q10 76 74 129q65 53 142 53q80 0 130 -56q49 -55 37 -134q-12 -77 -75 -128q-61 -51 -141 -51zM244 0h-169l645 739h169zM218 519q16 -18 45 -18t52 19t27 47t-13 47q-16 19 -44.5 19t-49.5 -20q-22 -19 -27 -47t10 -47zM670 -12 q-82 0 -131 54q-48 55 -37 132t74 130q65 53 143 53q81 0 130 -57q49 -55 37 -134q-12 -76 -75 -127q-61 -51 -141 -51zM682 106q30 0 52.5 19.5t27.5 47.5q3 28 -13 46.5t-44 18.5t-50.5 -19.5t-26.5 -47.5q-5 -27 10.5 -46t43.5 -19z" />
<glyph unicode="&#x26;" horiz-adv-x="707" d="M607 359l93 -91q-46 -53 -97 -104l81 -83l-113 -104l-80 86q-107 -74 -230 -74q-120 0 -182 65q-62 67 -49 165q16 120 159 200q-34 71 -22 145q12 77 76 132q65 56 168 56q86 0 138 -55q54 -55 43 -126q-11 -75 -72 -120q-32 -24 -57 -39q-51 -27 -67 -35l18 -20l94 -96 q3 2 12 11q16 14 87 87zM315 548q-4 -29 8 -64q55 25 80.5 44.5t30.5 44.5q2 21 -9.5 33.5t-34.5 12.5q-29 0 -49.5 -20t-25.5 -51zM294 139q48 0 99 30l-101 109l-26 28q-55 -41 -59 -85q-4 -37 18.5 -59.5t68.5 -22.5z" />
<glyph unicode="'" horiz-adv-x="327" d="M232 413h-175l141 323h203z" />
<glyph unicode="(" horiz-adv-x="439" d="M391 -82l-99 -137q-147 89 -210 223.5t-38 305.5q50 334 402 501l61 -147q-236 -137 -271 -367q-18 -116 20 -207t135 -172z" />
<glyph unicode=")" horiz-adv-x="439" d="M25 -223l-68 145q123 77 189 165.5t83 206.5q34 229 -156 373l92 140q150 -81 216 -222q66 -140 40 -314q-25 -167 -126 -293t-270 -201z" />
<glyph unicode="*" horiz-adv-x="523" d="M304 464l-114 -114l-87 85l105 100l-121 55l65 115l112 -58l18 140h133l-30 -139l129 57l33 -114l-141 -57l79 -98l-101 -86z" />
<glyph unicode="+" horiz-adv-x="607" d="M420 429h188l-25 -165h-188l-28 -188l-166 -3l28 191h-189l24 165h190l28 189h166z" />
<glyph unicode="," horiz-adv-x="278" d="M121 174q47 0 75 -35.5t21 -88.5q-15 -118 -207 -237l-49 72l51 36q45 29 76 67q-33 3 -54 31.5t-17 65.5q5 38 34.5 63.5t69.5 25.5z" />
<glyph unicode="-" horiz-adv-x="540" d="M483 195h-431l25 164h431z" />
<glyph unicode="." horiz-adv-x="260" d="M98 -12q-42 0 -66 27t-19 69q5 41 35.5 67.5t71.5 26.5q43 0 67.5 -29.5t16.5 -71.5q-7 -40 -36.5 -64.5t-69.5 -24.5z" />
<glyph unicode="/" horiz-adv-x="722" d="M169 -123h-205l629 948h206z" />
<glyph unicode="0" horiz-adv-x="695" d="M320 -12q-147 0 -215 107q-67 107 -40 283q26 172 120 272q95 102 238 102q145 0 213 -108q68 -109 41 -284q-26 -170 -119 -271q-95 -101 -238 -101zM335 163q61 0 103 59q43 61 56 150q14 89 -7 146q-20 59 -80 59t-102 -57t-57 -155q-15 -93 7 -147.5t80 -54.5z" />
<glyph unicode="1" horiz-adv-x="443" d="M43 551l270 188h136l-110 -739h-180l71 490l-108 -72z" />
<glyph unicode="2" horiz-adv-x="604" d="M599 514q-20 -120 -205 -276l-79 -68h237l-26 -171h-506l22 155l262 232l22 19l27 25l21 24q24 27 29 58q4 29 -14 46t-51 17q-69 0 -173 -83l-87 139q131 121 290 121q114 0 180 -70q66 -69 51 -168z" />
<glyph unicode="3" horiz-adv-x="574" d="M564 552q-8 -54 -47 -96t-99 -62q67 -18 97 -67.5t20 -117.5q-14 -99 -99 -160t-207 -61q-121 0 -237 77l89 144q82 -50 159 -50q48 0 77.5 17.5t34.5 48.5q4 28 -15.5 45.5t-57.5 17.5h-105l24 166h80q43 0 70 17.5t31 45.5t-15 44t-54 16q-65 0 -153 -52l-70 140 q52 40 122.5 63.5t141.5 23.5q102 0 164 -59t49 -141z" />
<glyph unicode="4" horiz-adv-x="633" d="M534 312h78l-23 -152h-77l-24 -160h-172l24 160h-309l-19 123l440 456h146zM390 497l-175 -185h147z" />
<glyph unicode="5" horiz-adv-x="601" d="M351 472q102 0 169 -65t50 -175q-15 -109 -102 -176q-86 -68 -215 -68q-135 0 -248 81l82 147q83 -57 171 -57q54 0 88 23.5t39 60.5q4 33 -19 53t-65 20q-63 0 -119 -43l-89 95l64 371h423l-26 -172h-274l-17 -108q42 13 88 13z" />
<glyph unicode="6" horiz-adv-x="637" d="M395 477q103 0 165 -71q62 -70 45 -174q-15 -102 -97 -172q-82 -69 -195 -69q-93 0 -157 51t-88 133t-9 180q20 152 114 269q47 59 117 93.5t149 34.5q119 0 204 -70l-94 -136q-50 39 -119 39q-67 0 -114.5 -43t-69.5 -122q60 57 149 57zM423 236q6 39 -15.5 63.5 t-60.5 24.5t-68 -24.5t-34 -62.5q-6 -37 15.5 -63t59.5 -26q39 0 67.5 25t35.5 63z" />
<glyph unicode="7" horiz-adv-x="541" d="M75 565l26 174h494l-18 -135l-336 -604h-204l323 565h-285z" />
<glyph unicode="8" horiz-adv-x="644" d="M629 549q-17 -102 -126 -154q58 -29 85 -79.5t17 -113.5q-17 -98 -103 -156q-85 -58 -211 -58q-130 0 -200 64t-55 164q19 130 163 179q-95 54 -77 163q13 87 91 140q78 54 189 54q116 0 178 -58t49 -145zM457 529q6 30 -16 51t-61 21q-38 0 -65 -19.5t-31 -50.5 q-5 -30 16 -50t59 -20t65.5 19t32.5 49zM422 227q5 33 -19.5 55.5t-67.5 22.5q-45 0 -75 -22t-34 -56q-5 -33 18.5 -54.5t66.5 -21.5q42 0 73.5 21t37.5 55z" />
<glyph unicode="9" horiz-adv-x="630" d="M362 752q98 0 162 -54q125 -106 94 -325q-23 -164 -120 -275q-98 -110 -251 -110q-121 0 -203 69l72 136q50 -42 125 -42q126 0 187 154q-56 -41 -134 -41q-108 0 -168 70t-46 178q13 105 90 173q76 67 192 67zM433 505q6 38 -16.5 64t-61.5 26q-38 0 -66.5 -25.5 t-33.5 -63.5q-5 -37 16.5 -62.5t60.5 -25.5q38 0 67 25t34 62z" />
<glyph unicode=":" horiz-adv-x="291" d="M166 339q-42 0 -66 27t-19 69q5 41 35.5 67.5t71.5 26.5q43 0 67.5 -29.5t16.5 -71.5q-7 -40 -36.5 -64.5t-69.5 -24.5zM114 -12q-42 0 -66 27t-19 69q5 41 35.5 67.5t71.5 26.5q43 0 67.5 -29.5t16.5 -71.5q-7 -40 -36.5 -64.5t-69.5 -24.5z" />
<glyph unicode=";" horiz-adv-x="309" d="M201 535q45 0 70 -30.5t17 -74.5q-7 -41 -37.5 -66.5t-72.5 -25.5q-43 0 -68.5 28.5t-19.5 70.5q5 42 37 70t74 28zM135 174q47 0 75 -35.5t21 -88.5q-15 -118 -207 -237l-49 72l51 36q45 29 76 67q-33 3 -54 31.5t-17 65.5q5 38 34.5 63.5t69.5 25.5z" />
<glyph unicode="&#x3c;" horiz-adv-x="545" d="M486 211l-24 -175l-426 212l20 146l489 211l-24 -172l-287 -110z" />
<glyph unicode="=" horiz-adv-x="580" d="M543 362h-462l22 142h462zM512 152h-462l21 141h462z" />
<glyph unicode="&#x3e;" horiz-adv-x="540" d="M518 248l-487 -215l24 176l281 112l-246 109l24 172l424 -213z" />
<glyph unicode="?" horiz-adv-x="582" d="M355 218h-173l11 73q11 81 80 135q12 10 41 31.5t43 33.5t28.5 31.5t17.5 38.5q4 29 -12.5 45.5t-47.5 16.5q-79 0 -164 -91l-93 121q126 137 287 137q113 0 175 -65q63 -65 48 -157q-13 -88 -89 -147q-7 -6 -35.5 -26.5t-40 -30.5t-30.5 -28.5t-28 -36.5t-12 -38z M240 -13q-41 0 -65 27t-20 69q5 41 36 67.5t72 26.5q43 0 67.5 -29.5t16.5 -71.5q-7 -39 -37 -64t-70 -25z" />
<glyph unicode="@" horiz-adv-x="960" d="M566 740q193 0 300.5 -121.5t82.5 -288.5q-18 -115 -92 -189q-73 -73 -164 -73q-88 0 -115 67q-61 -67 -153 -67q-88 0 -139 63q-50 64 -35 159q13 90 78 152t152 62q79 0 120 -53l5 38h131l-38 -247q-7 -51 24 -51q28 0 60 41q31 40 42 106q19 124 -60 207 q-80 83 -212 80q-145 -1 -255 -101t-128 -241q-20 -143 66 -240q85 -97 226 -97t275 88l45 -101q-54 -40 -146 -72q-90 -31 -185 -31q-198 0 -314 137t-89 329q26 188 172 316t346 128zM462 191q41 0 74 30t38 71q4 39 -18 65t-59 26q-39 0 -74 -30q-33 -30 -37 -73 q-4 -39 17.5 -64t58.5 -25z" />
<glyph unicode="A" horiz-adv-x="713" d="M677 0h-191l-22 135h-235l-65 -135h-193l379 739h174zM442 297l-37 219l-104 -219h141z" />
<glyph unicode="B" horiz-adv-x="707" d="M687 555q-7 -51 -40.5 -91.5t-83.5 -58.5q64 -17 93 -68.5t19 -122.5q-14 -97 -90 -155q-76 -59 -194 -59h-349l110 739h343q103 0 153 -56q49 -55 39 -128zM498 521q3 26 -12.5 43t-45.5 17h-128l-19 -125h118q37 0 60 18.5t27 46.5zM486 235q4 31 -14 51.5t-56 20.5 h-145l-22 -147h126q51 0 79 21t32 54z" />
<glyph unicode="C" horiz-adv-x="756" d="M396 -11q-168 0 -266 108q-97 109 -75 281q15 114 80 200t157 130t199 44q97 0 174.5 -39t126.5 -109l-137 -123q-71 92 -175 92q-86 0 -151 -55q-65 -54 -77 -144q-12 -89 37 -146t134 -57q109 0 205 98l112 -127q-64 -71 -154 -112t-190 -41z" />
<glyph unicode="D" horiz-adv-x="780" d="M352 0h-310l110 739h281q180 0 267 -102q88 -100 65 -275q-23 -170 -131 -266t-282 -96zM312 560l-57 -381h105q93 0 147 57t66 141q12 81 -24 132t-114 51h-123z" />
<glyph unicode="E" horiz-adv-x="659" d="M575 0h-533l110 739h534l-26 -173h-346l-16 -109h320l-25 -172h-320l-18 -112h345z" />
<glyph unicode="F" horiz-adv-x="627" d="M229 0h-187l110 739h525l-26 -175h-339l-18 -123h299l-25 -173h-299z" />
<glyph unicode="G" horiz-adv-x="809" d="M400 -11q-170 0 -268 111q-97 112 -72 284q24 166 147 267q125 101 295 101q176 0 281 -110l-130 -133q-63 66 -163 66q-93 0 -161 -58q-68 -59 -80 -149q-11 -83 34 -142q47 -59 138 -59q104 0 177 64l10 60h-168l24 160l337 -1l-47 -322q-160 -139 -354 -139z" />
<glyph unicode="H" horiz-adv-x="780" d="M229 0h-187l110 739h187l-42 -282h259l42 282h188l-110 -739h-188l41 278h-259z" />
<glyph unicode="I" horiz-adv-x="334" d="M42 0l110 739h188l-110 -739h-188z" />
<glyph unicode="J" horiz-adv-x="605" d="M224 -12q-145 0 -246 107l98 142q63 -68 143 -68q59 0 100.5 41t51.5 111l62 418h187l-64 -436q-23 -153 -110.5 -234t-221.5 -81z" />
<glyph unicode="K" horiz-adv-x="720" d="M571 739h228l-306 -327l208 -412h-227l-125 265l-95 -97l-25 -168h-187l110 739h187l-45 -299z" />
<glyph unicode="L" horiz-adv-x="633" d="M589 0h-547l110 739h188l-84 -561h359z" />
<glyph unicode="M" horiz-adv-x="954" d="M225 0h-183l110 739h137l209 -380l322 380h140l-110 -739h-185l53 355l-223 -259h-70l-147 259z" />
<glyph unicode="N" horiz-adv-x="806" d="M568 338l60 401h184l-110 -739h-141l-277 396l-59 -396h-183l110 739h134z" />
<glyph unicode="O" d="M392 -12q-169 0 -263 112t-70 277q25 162 150 269q125 106 290 106q168 0 263 -113q94 -112 70 -274q-24 -161 -149 -269t-291 -108zM411 173q81 0 149 56q67 57 79 144q13 84 -33 139q-45 55 -126 55q-85 0 -150 -58q-66 -57 -78 -144q-12 -84 33 -138t126 -54z" />
<glyph unicode="P" horiz-adv-x="664" d="M152 739h284q144 0 204.5 -75t45.5 -185q-15 -117 -95 -182t-224 -65h-103l-35 -232h-187zM494 487q5 36 -14.5 58.5t-58.5 22.5h-107l-25 -168h78q117 0 127 87z" />
<glyph unicode="Q" d="M832 365q-20 -124 -98 -217q-80 -95 -194 -135q38 -34 104 -34q39 0 128 23l11 -153q-83 -26 -155 -26q-196 0 -288 168q-147 18 -225 127q-78 110 -56 259q25 162 150 269q125 106 290 106q168 0 263 -113q94 -112 70 -274zM639 373q13 84 -33 139q-45 55 -126 55 q-85 0 -150 -58q-66 -57 -78 -144q-12 -84 33 -138t126 -54t149 56q67 57 79 144z" />
<glyph unicode="R" horiz-adv-x="701" d="M693 492q-19 -164 -165 -222l118 -270h-214l-94 245h-73l-36 -245h-187l110 739h298q134 0 195 -72t48 -175zM434 568h-120l-24 -160h98q99 0 113 83q5 35 -12.5 56t-54.5 21z" />
<glyph unicode="S" horiz-adv-x="625" d="M287 -14q-191 0 -276 151l133 119q25 -42 67.5 -67.5t89.5 -25.5q33 0 56 14t27 38q3 18 -7.5 31.5t-38.5 29.5l-60 30q-51 26 -80 45q-108 71 -90 192q15 98 94 153q80 57 197 57q141 0 244 -95l-114 -137q-77 59 -147 59q-73 0 -78 -48q-3 -20 12 -33.5t59 -34.5 q104 -51 135 -73q102 -71 84 -187q-16 -102 -104 -161q-86 -57 -203 -57z" />
<glyph unicode="T" horiz-adv-x="626" d="M188 0l83 559h-205l27 180h598l-27 -180h-204l-84 -559h-188z" />
<glyph unicode="U" horiz-adv-x="740" d="M339 -13q-61 0 -111.5 17.5t-90 53t-56 98.5t-3.5 147l66 436h188l-68 -448q-9 -61 16.5 -92.5t76.5 -31.5q54 0 92.5 34.5t49.5 100.5l66 437h189l-67 -437q-26 -173 -132 -247q-94 -68 -216 -68z" />
<glyph unicode="V" horiz-adv-x="761" d="M390 272l232 467h217l-405 -739h-167l-187 739h215z" />
<glyph unicode="W" horiz-adv-x="1093" d="M388 0h-180l-127 739h206l56 -462l215 462h133l78 -462l195 462h208l-349 -739h-179l-64 430z" />
<glyph unicode="X" horiz-adv-x="703" d="M188 0h-219l286 373l-155 366h213l83 -226l162 226h218l-281 -366l166 -373h-214l-93 233z" />
<glyph unicode="Y" horiz-adv-x="711" d="M566 739h221l-332 -491l-38 -248h-186l37 248l-182 491h218l87 -283z" />
<glyph unicode="Z" horiz-adv-x="677" d="M607 0h-600l19 141l401 428h-323l25 170h577l-20 -147l-391 -422h337z" />
<glyph unicode="[" horiz-adv-x="437" d="M349 -227h-347l155 1038h347l-24 -162h-167l-107 -714h167z" />
<glyph unicode="\" horiz-adv-x="705" d="M309 825l329 -948h-196l-331 948h198z" />
<glyph unicode="]" horiz-adv-x="437" d="M305 -227h-347l23 162h167l107 714h-167l25 162h347z" />
<glyph unicode="^" horiz-adv-x="559" d="M237 431h-175l239 349h125l136 -349h-170l-52 168z" />
<glyph unicode="_" horiz-adv-x="597" d="M535 -208h-598l25 164h597z" />
<glyph unicode="`" horiz-adv-x="366" d="M314 803l36 -183h-155l-67 183h186z" />
<glyph unicode="a" horiz-adv-x="689" d="M510 501l8 51h167l-83 -552h-166l7 47q-76 -61 -171 -61q-120 0 -185 86q-64 86 -46 213q18 128 106 204q89 77 206 77q98 0 157 -65zM328 147q55 0 96 38q43 40 50 94q7 52 -24 89t-84 37q-54 0 -95 -36q-41 -35 -50 -87q-10 -55 20 -96q30 -39 87 -39z" />
<glyph unicode="b" horiz-adv-x="686" d="M431 566q114 0 182 -83q68 -84 52 -210q-16 -125 -100 -207q-83 -80 -202 -80q-101 0 -160 74l-8 -60h-170l113 764l177 -1l-37 -251q66 54 153 54zM484 271q10 52 -20 93q-29 41 -87 41q-53 0 -92.5 -34.5t-48.5 -87.5q-10 -57 20.5 -96t86.5 -39q52 0 92 35 q40 36 49 88z" />
<glyph unicode="c" horiz-adv-x="607" d="M300 -12q-134 0 -205 83q-71 84 -53 211q16 127 106 205q89 79 216 79q92 0 158.5 -41.5t93.5 -121.5l-150 -71q-33 70 -107 70q-55 0 -96 -36t-48 -92q-7 -53 22 -88.5t81 -35.5q39 0 74.5 20t56.5 53l131 -90q-45 -71 -118 -108t-162 -37z" />
<glyph unicode="d" horiz-adv-x="692" d="M504 505l38 258h177l-114 -763h-171l6 42q-71 -56 -164 -56q-121 0 -187 87t-48 212q16 126 103 204q88 77 205 77q94 0 155 -61zM329 147q55 0 96 38t49 93q6 53 -25 90t-85 37q-53 0 -93.5 -35.5t-49.5 -87.5q-9 -56 21 -96q32 -39 87 -39z" />
<glyph unicode="e" horiz-adv-x="638" d="M371 566q126 0 197 -77t52 -207q-6 -38 -15 -63h-398q15 -87 118 -87q92 0 177 53l58 -124q-113 -73 -249 -73q-98 0 -165 42.5t-92 109t-12 145.5q18 127 108 204q92 77 221 77zM364 425q-96 0 -136 -85h233q-4 40 -29.5 62.5t-67.5 22.5z" />
<glyph unicode="f" horiz-adv-x="462" d="M335 557l-1 -5h169l-22 -146h-169l-60 -406h-175l59 406h-78l23 146h76l2 14q17 115 89 171q73 58 177 58q94 0 179 -50l-74 -129q-70 39 -128 20t-67 -79z" />
<glyph unicode="g" horiz-adv-x="680" d="M510 502l7 50h159l-75 -499q-21 -133 -116 -210t-228 -77q-149 0 -255 84l79 128q84 -63 177 -63q71 0 118 36t56 93l1 8q-64 -53 -156 -53q-121 0 -187 82t-49 207q18 124 105 201q88 77 206 77q101 0 158 -64zM321 151q55 0 97 36q41 37 49 93q8 54 -21.5 89t-82.5 35 q-55 0 -96.5 -36t-48.5 -92q-7 -53 22 -89t81 -36z" />
<glyph unicode="h" horiz-adv-x="663" d="M201 0h-176l113 763h173l-45 -287q27 40 78 65.5t110 25.5q89 0 142 -62q54 -61 36 -179l-49 -326h-177l44 297q8 53 -12.5 81t-65.5 28q-51 0 -86.5 -36.5t-45.5 -101.5z" />
<glyph unicode="i" horiz-adv-x="292" d="M210 601q-45 0 -72 30.5t-20 76.5q7 41 38.5 68t72.5 27q45 0 71.5 -30.5t19.5 -75.5q-6 -41 -37.5 -68.5t-72.5 -27.5zM288 552l-82 -552h-177l82 552h177z" />
<glyph unicode="j" horiz-adv-x="269" d="M187 601q-45 0 -72 30.5t-20 76.5q7 41 38.5 68t72.5 27q45 0 71.5 -30.5t19.5 -75.5q-6 -41 -37.5 -68.5t-72.5 -27.5zM-91 -235q-81 0 -140 35l48 138q42 -19 79 -19q96 0 116 131l75 502h177l-80 -529q-20 -134 -95 -196q-76 -62 -180 -62z" />
<glyph unicode="k" horiz-adv-x="614" d="M449 552h216l-272 -223l206 -329h-209l-131 219l-29 -24l-29 -195h-176l113 763h177l-55 -371z" />
<glyph unicode="l" horiz-adv-x="287" d="M315 763l-114 -763h-176l113 763h177z" />
<glyph unicode="m" horiz-adv-x="1025" d="M793 568q100 0 158 -64q59 -64 41 -182l-48 -322h-177l45 304q7 50 -13.5 76t-61.5 26q-47 0 -80.5 -34.5t-44.5 -99.5l-40 -272h-176l45 304q7 48 -14 75t-63 27q-45 0 -78 -32t-42 -91l-43 -283h-176l82 552h173l-13 -76q29 42 78 66.5t103 25.5q52 -1 91.5 -24 t54.5 -67q75 91 199 91z" />
<glyph unicode="n" horiz-adv-x="664" d="M201 0h-176l82 552h173l-12 -76q27 40 77 65.5t109 25.5q89 0 142 -62q54 -61 36 -179l-49 -326h-177l44 297q8 53 -12.5 81t-65.5 28q-51 0 -86.5 -36.5t-45.5 -101.5z" />
<glyph unicode="o" horiz-adv-x="659" d="M302 -15q-137 0 -210 88t-52 215q21 121 116 201q94 79 221 79q141 0 213 -94q73 -94 43 -227q-25 -117 -119 -190q-93 -72 -212 -72zM318 151q52 0 93 36q43 36 50 87q11 54 -19 91q-30 38 -84 38q-51 0 -91 -33t-51 -84q-13 -55 17 -96q30 -39 85 -39z" />
<glyph unicode="p" horiz-adv-x="686" d="M428 566q115 0 184 -83t53 -210q-17 -127 -98 -207q-82 -80 -201 -80q-101 0 -158 71l-41 -284h-177l117 779h174l-5 -40q66 54 152 54zM484 271q9 53 -21 93q-29 41 -87 41q-53 0 -92.5 -35t-47.5 -87q-9 -57 21.5 -96t86.5 -39q53 0 92.5 35t47.5 88z" />
<glyph unicode="q" horiz-adv-x="689" d="M504 505l6 47h175l-117 -779h-177l37 260q-68 -47 -152 -47q-122 0 -188 88q-65 89 -47 213q16 125 103 203q86 76 205 76q97 0 155 -61zM221 282q-11 -56 21 -96q32 -39 87 -39t96 38t49 93q6 53 -24.5 90t-85.5 37q-54 0 -94.5 -35.5t-48.5 -87.5z" />
<glyph unicode="r" horiz-adv-x="460" d="M201 0h-176l82 552h170l-11 -66q63 81 153 81q42 0 87 -16l-46 -166q-33 12 -68 12q-61 0 -103 -41.5t-54 -126.5z" />
<glyph unicode="s" horiz-adv-x="533" d="M239 -14q-150 0 -240 97l92 117q69 -69 156 -69q61 0 67 34q3 18 -32 32q-15 6 -39 14q-64 23 -97 44q-81 50 -69 153q14 81 79 121q68 42 160 42q119 0 211 -74l-92 -115q-56 46 -128 46q-49 0 -55 -26q-5 -23 25 -36l47 -18q39 -13 63 -25q32 -13 57.5 -33t41 -54.5 t6.5 -74.5q-13 -83 -85 -130q-71 -45 -168 -45z" />
<glyph unicode="t" horiz-adv-x="488" d="M482 406h-172l-26 -175q-11 -83 57 -83q33 0 87 22l30 -141q-82 -43 -177 -43q-101 0 -146 64.5t-28 178.5l27 177h-85l22 146h86l29 196h176l-30 -196h173z" />
<glyph unicode="u" horiz-adv-x="629" d="M281 -14q-123 0 -184 71t-41 200l44 295h177l-47 -312q-6 -42 13 -67.5t58 -25.5q90 0 108 107l45 298h177l-44 -293q-41 -273 -306 -273z" />
<glyph unicode="v" horiz-adv-x="622" d="M318 237l159 315h194l-320 -551h-142l-154 551h195z" />
<glyph unicode="w" horiz-adv-x="907" d="M320 1h-158l-106 551h186l46 -321l154 321h125l57 -321l143 321h186l-270 -551h-157l-59 294z" />
<glyph unicode="x" horiz-adv-x="588" d="M422 277l127 -277h-203l-60 162l-115 -162h-201l215 278l-111 274h201l49 -150l105 150h197z" />
<glyph unicode="y" horiz-adv-x="634" d="M332 236l157 316h192l-283 -528q-74 -136 -146.5 -197.5t-164.5 -61.5q-73 0 -123 36l53 140q31 -18 69 -18t66 20t57 62l5 8l-158 539h202z" />
<glyph unicode="z" horiz-adv-x="562" d="M549 425l-280 -280h249l-21 -145h-494l18 124l289 282h-236l22 145h472z" />
<glyph unicode="{" horiz-adv-x="436" d="M426 811h77l-27 -176h-23q-67 0 -78 -69l-26 -163q-10 -74 -107 -115q84 -39 73 -116l-12 -76q-8 -62 -12 -85q-9 -66 57 -66h25l-26 -176h-87q-191 0 -160 199l9 76q2 14 5.5 42.5t5.5 38.5q8 50 -15.5 68.5t-85.5 21.5l21 150q63 3 92.5 22.5t37.5 70.5l13 77l15 90 q13 93 68.5 139.5t159.5 46.5z" />
<glyph unicode="|" horiz-adv-x="316" d="M191 -179h-182l153 1026h182z" />
<glyph unicode="}" horiz-adv-x="436" d="M364 622l-24 -167q-8 -50 15.5 -68.5t85.5 -21.5l-21 -150q-63 -3 -92.5 -22.5t-37.5 -70.5l-15 -80q-4 -21 -8.5 -48t-5.5 -30q-29 -195 -216 -195h-89l26 176h23q69 0 79 70q4 33 13 85q13 73 13 75q10 69 104 116q-81 40 -70 116l28 162q10 66 -57 66h-25l26 176h75 q202 0 173 -189z" />
<glyph unicode="~" horiz-adv-x="724" d="M477 216q-69 0 -165 47q-31 16 -54 16t-45.5 -14.5t-61.5 -54.5l-102 95q41 63 101 97t127 34q57 0 130 -31t92 -31q24 0 47 16t61 60l105 -99q-99 -135 -235 -135z" />
<glyph unicode="&#xa1;" horiz-adv-x="307" d="M172 336q-41 0 -65 27t-20 68q5 42 35.5 68.5t72.5 26.5q43 0 67.5 -29.5t16.5 -71.5q-7 -39 -37 -64t-70 -25zM-21 -249l103 538h159l-80 -538h-182z" />
<glyph unicode="&#xa2;" horiz-adv-x="627" d="M396 398l-36 -243q62 17 94 68l131 -90q-84 -131 -250 -144l-11 -73h-88l11 77q-107 18 -161 97q-54 80 -39 192q15 118 93 194q81 78 193 88l11 72h88l-11 -74q72 -10 124 -50.5t76 -108.5l-150 -71q-25 52 -75 66zM220 274q-5 -39 9 -69t44 -44l34 230 q-77 -35 -87 -117z" />
<glyph unicode="&#xa3;" horiz-adv-x="602" d="M513 298h-193q-14 -69 -67 -127h298l-25 -171h-504l19 146q79 77 97 152h-79l20 135h55q-8 62 0 104q17 101 96 158q80 57 183 57q75 0 134 -34q60 -35 84 -85l-128 -111q-28 52 -88 52q-40 0 -68 -23.5t-35 -64.5q-3 -21 2 -53h219z" />
<glyph unicode="&#xa4;" horiz-adv-x="650" d="M588 365q-10 -64 -52 -118l67 -76l-87 -78l-70 80q-62 -32 -131 -32q-68 0 -119 30l-90 -78l-70 78l88 76q-28 53 -19 122q11 72 61 130l-69 80l88 77l75 -86q61 26 119 26q63 0 114 -27l102 88l69 -78l-97 -84q31 -58 21 -130zM245 368q-8 -43 15.5 -73t67.5 -30 q46 0 80 31q36 31 42 74q6 41 -18 71.5t-67 30.5q-44 0 -78 -29.5t-42 -74.5z" />
<glyph unicode="&#xa5;" horiz-adv-x="732" d="M575 739h212l-202 -306h70l-20 -133h-138l-24 -37h156l-20 -134h-162l-19 -129h-187l19 129h-162l20 134h160l-13 37h-141l20 133h73l-110 306h209l83 -295z" />
<glyph unicode="&#xa6;" horiz-adv-x="316" d="M282 434h-182l62 413h182zM71 234h182l-62 -413h-182z" />
<glyph unicode="&#xa7;" horiz-adv-x="660" d="M460 433q77 -36 121 -79q58 -52 44 -143q-14 -88 -89 -141q22 -45 15 -102q-15 -90 -97 -151q-82 -62 -199 -62q-182 0 -267 142l125 115q28 -39 70 -62.5t84 -23.5q33 0 56 15t25 37q3 29 -53 58q-2 1 -9.5 4.5t-24 11.5t-32.5 16q-94 46 -135 95.5t-30 123.5 q14 85 89 140q-23 47 -16 106q13 97 93 159q79 61 190 61q139 0 238 -118l-138 -108q-48 52 -108 52q-33 0 -55 -13.5t-24 -36.5q-2 -21 25 -45q1 -1 44 -24q6 -3 16.5 -8t23.5 -11t18 -8zM320 223q90 -44 95 -47q18 16 19 31q2 21 -22 36q-15 11 -24 15l-33 18 q-71 36 -90 47q-16 -16 -18 -32q-1 -17 16.5 -32.5t56.5 -35.5z" />
<glyph unicode="&#xa8;" horiz-adv-x="520" d="M204 616q-43 0 -68 29t-18 72q6 39 36 64.5t69 25.5q42 0 67.5 -29t18.5 -71q-6 -40 -36 -65.5t-69 -25.5zM436 616q-43 0 -68 29t-18 72q6 39 36 64.5t69 25.5q42 0 67.5 -29t18.5 -71q-6 -40 -36 -65.5t-69 -25.5z" />
<glyph unicode="&#xa9;" horiz-adv-x="841" d="M388 -12q-102 -2 -184.5 50t-122 141.5t-22.5 191.5q24 161 152 271q130 110 288 110q159 0 257 -113q97 -112 73 -271q-22 -155 -152 -268q-127 -112 -289 -112zM400 85q117 0 215 83q98 85 116 202q17 118 -55 200q-72 84 -189 84t-215 -83t-114 -201q-16 -117 54 -201 t188 -84zM417 162q-89 0 -140 60q-51 62 -38 152q14 90 78 145q65 57 156 57q57 0 102 -28.5t66 -82.5l-96 -51q-30 51 -82 51q-40 0 -71 -27.5t-37 -69.5t15.5 -69t62.5 -27q58 0 96 50l82 -58q-73 -102 -194 -102z" />
<glyph unicode="&#xaa;" horiz-adv-x="405" d="M272 736q73 0 111 -41t26 -122l-28 -183h-98l4 31q-41 -38 -104 -38q-54 0 -83.5 32t-21.5 82q7 48 51 74.5t117 26.5q3 0 27.5 -0.5t35.5 -0.5q0 21 -15.5 33.5t-44.5 12.5q-55 0 -105 -24l-23 82q73 35 151 35zM216 466q31 0 54.5 18.5t28.5 47.5h-44q-33 0 -53 -10 t-22 -26q-2 -13 8 -21.5t28 -8.5z" />
<glyph unicode="&#xab;" horiz-adv-x="641" d="M326 88h-185l-102 203l159 203h193l-171 -203zM581 88h-184l-103 203l160 203h192l-170 -203z" />
<glyph unicode="&#xac;" horiz-adv-x="600" d="M381 233h-320l24 162h480l-40 -265h-160z" />
<glyph unicode="&#xad;" horiz-adv-x="491" d="M442 246h-382l24 164h382z" />
<glyph unicode="&#xae;" horiz-adv-x="614" d="M392 790q113 0 180 -79q68 -79 51 -189q-17 -111 -106 -189q-91 -77 -201 -77q-113 0 -180 79t-51 191q17 113 107 188q89 76 200 76zM545 525q11 81 -34 136q-45 56 -127 56t-147 -56q-64 -56 -74 -138q-11 -81 35 -137q46 -57 126 -57t144 57q65 59 77 139zM272 646 h115q40 0 61.5 -23.5t16.5 -59.5q-6 -50 -54 -71l34 -87h-74l-29 78h-25l-12 -78h-69zM368 590l-35 1l-8 -53h33q34 0 35 28q2 10 -4.5 17t-20.5 7z" />
<glyph unicode="&#xaf;" horiz-adv-x="440" d="M445 631l-343 -2l23 153h343z" />
<glyph unicode="&#xb0;" horiz-adv-x="368" d="M235 524q-61 0 -102 37.5t-41 97.5q0 68 52 123t128 55q59 0 99 -37q42 -38 42 -100q0 -71 -53 -124q-52 -52 -125 -52zM243 622q27 0 47.5 20.5t20.5 46.5q0 23 -13.5 35.5t-35.5 12.5q-27 0 -47 -21t-20 -48q0 -21 13.5 -33.5t34.5 -12.5z" />
<glyph unicode="&#xb1;" horiz-adv-x="638" d="M632 499l-25 -161h-188l-23 -154h189l-24 -157h-538l23 157h190l23 154h-190l24 161h190l28 189h161l-29 -189h189z" />
<glyph unicode="&#xb2;" horiz-adv-x="347" d="M398 782q-7 -54 -72 -113l-66 -58h114l-16 -104h-283l13 80l151 136l10 10l8.5 8.5t7 6.5t6.5 6.5t4.5 5.5t3.5 5.5t2.5 5.5t2 6t1.5 7q1 27 -26 27q-38 0 -103 -44l-43 85q73 60 162 60q63 0 97 -36.5t26 -93.5z" />
<glyph unicode="&#xb3;" horiz-adv-x="347" d="M396 805q-7 -57 -82 -87q37 -12 54.5 -38.5t12.5 -60.5q-7 -51 -55 -84.5t-120 -33.5q-69 0 -136 41l51 85q52 -26 92 -26q52 0 54 32q1 14 -11 21.5t-30 7.5h-60l13 93h46q13 -1 32.5 7t22.5 24q1 12 -9 18t-27 6q-32 0 -78 -26l-43 81q65 47 145 47q60 0 97 -30 q38 -31 31 -77z" />
<glyph unicode="&#xb4;" horiz-adv-x="371" d="M265 620h-161l90 183h193z" />
<glyph unicode="&#xb6;" horiz-adv-x="841" d="M365 734h511l-26 -178h-81l-118 -759h-183l118 759h-66l-117 -759h-183l70 463h-24q-95 0 -154 68t-42 179q16 105 94 166q79 61 201 61z" />
<glyph unicode="&#xb7;" horiz-adv-x="273" d="M104 -12q-42 0 -66 27t-19 69q5 41 35.5 67.5t71.5 26.5q43 0 67.5 -29.5t16.5 -71.5q-7 -40 -36.5 -64.5t-69.5 -24.5z" />
<glyph unicode="&#xb8;" horiz-adv-x="369" d="M223 18l-38 -67q44 -6 70.5 -35t20.5 -73q-8 -50 -55 -87q-46 -37 -123 -37q-62 0 -124 32l41 96q38 -21 82 -21q49 0 54 33q5 32 -52 32h-53l-3 31l54 98z" />
<glyph unicode="&#xb9;" horiz-adv-x="285" d="M90 791l168 111h85l-60 -395h-111l34 241l-69 -46z" />
<glyph unicode="&#xba;" horiz-adv-x="419" d="M235 381q-76 0 -121 51q-44 51 -33 128q10 73 70 123q58 49 134 49q79 0 123 -51q45 -51 34 -128q-10 -73 -71 -123q-58 -49 -136 -49zM248 485q32 0 57.5 21.5t29.5 52.5q5 30 -12.5 50t-48.5 20q-32 0 -57 -21t-29 -52q-4 -30 13.5 -50.5t46.5 -20.5z" />
<glyph unicode="&#xbb;" horiz-adv-x="640" d="M362 291l-164 -203h-184l166 203l-109 203h192zM617 291l-163 -203h-185l167 203l-110 203h193z" />
<glyph unicode="&#xbc;" horiz-adv-x="893" d="M168 347l34 241l-70 -46l-46 89l168 111h84l-58 -395h-112zM73 0l688 739h137l-687 -739h-138zM728 396h94l-34 -226h40l-13 -87h-40l-13 -83h-103l12 83h-170l-14 66zM697 262l-92 -92h79z" />
<glyph unicode="&#xbd;" horiz-adv-x="886" d="M169 347l34 241l-70 -46l-46 89l168 111h84l-58 -395h-112zM67 0l688 739h137l-687 -739h-138zM746 405q63 0 97 -36.5t26 -93.5q-7 -54 -72 -113l-66 -58h114l-16 -104h-283l13 80l151 136l10 10l8.5 8.5t7 6.5t6.5 6.5t4.5 5.5t3.5 5.5t2.5 5.5t2 6t1.5 7q2 27 -26 27 q-38 0 -103 -44l-43 85q74 60 162 60z" />
<glyph unicode="&#xbe;" horiz-adv-x="856" d="M371 459q-7 -51 -55 -84.5t-120 -33.5q-69 0 -136 41l51 85q52 -26 92 -26q52 0 54 32q1 14 -11 21.5t-30 7.5h-60l13 93h46q13 -1 32.5 7t22.5 24q1 12 -9 18t-27 6q-32 0 -78 -26l-43 81q65 47 145 47q60 0 97 -30q38 -31 31 -77q-7 -57 -82 -87q37 -12 54.5 -38.5 t12.5 -60.5zM71 0l688 739h137l-687 -739h-138zM748 396h94l-34 -226h40l-13 -87h-40l-13 -83h-103l12 83h-170l-14 66zM717 262l-92 -92h79z" />
<glyph unicode="&#xbf;" horiz-adv-x="575" d="M344 528q41 0 64.5 -27t18.5 -69q-6 -41 -37 -67.5t-72 -26.5q-43 0 -67 29.5t-15 71.5q8 40 38.5 64.5t69.5 24.5zM225 297h173l-13 -73q-13 -80 -83 -136q-10 -8 -41 -30.5t-44.5 -34t-28.5 -31t-18 -38.5q-4 -29 12 -45.5t47 -16.5q78 0 166 91l91 -121 q-129 -137 -290 -137q-112 0 -174 65t-45 157q16 90 91 146q10 8 37 27.5t40.5 30.5t31.5 28.5t28 36t13 38.5z" />
<glyph unicode="&#xc0;" horiz-adv-x="713" d="M479 991l39 -195h-166l-72 195h199zM677 0h-191l-22 135h-235l-65 -135h-193l379 739h174zM442 297l-37 219l-104 -219h141z" />
<glyph unicode="&#xc1;" horiz-adv-x="713" d="M460 989h205l-130 -195h-171zM677 0h-191l-22 135h-235l-65 -135h-193l379 739h174zM442 297l-37 219l-104 -219h141z" />
<glyph unicode="&#xc2;" horiz-adv-x="713" d="M510 795l-48 90l-78 -90h-175l194 197h143l134 -197h-170zM-29 0l379 739h174l153 -739h-191l-22 135h-235l-65 -135h-193zM442 297l-37 219l-104 -219h141z" />
<glyph unicode="&#xc3;" horiz-adv-x="713" d="M394 837q-46 0 -86 -61l-112 67q45 70 86.5 100.5t94.5 30.5q39 0 79 -23q40 -22 51 -22q36 0 78 57l112 -65q-77 -131 -167 -131q-36 0 -79 23q-42 24 -57 24zM-29 0l379 739h174l153 -739h-191l-22 135h-235l-65 -135h-193zM442 297l-37 219l-104 -219h141z" />
<glyph unicode="&#xc4;" horiz-adv-x="713" d="M325 789q-45 0 -71 30.5t-19 75.5q6 40 37.5 67t72.5 27q44 0 70 -30.5t19 -74.5q-6 -42 -37 -68.5t-72 -26.5zM587 989q44 0 70.5 -30.5t19.5 -74.5q-6 -42 -37 -68.5t-73 -26.5q-45 0 -71 30.5t-19 75.5q7 40 38.5 67t71.5 27zM-29 0l379 739h174l153 -739h-191 l-22 135h-235l-65 -135h-193zM442 297l-37 219l-104 -219h141z" />
<glyph unicode="&#xc5;" horiz-adv-x="713" d="M443 777q-65 0 -106 44q-40 44 -29 106q9 61 60 105q53 44 116 44q65 0 104 -45q40 -43 31 -107q-10 -61 -62 -105q-49 -42 -114 -42zM453 873q23 0 41.5 16.5t22.5 39.5q3 22 -10 36.5t-34 14.5q-24 0 -42.5 -15.5t-21.5 -38.5t9.5 -38t34.5 -15zM677 0h-191l-22 135 h-235l-65 -135h-193l379 739h174zM442 297l-37 219l-104 -219h141z" />
<glyph unicode="&#xc6;" horiz-adv-x="1078" d="M1106 739l-27 -179h-352l-14 -98h324l-27 -180h-324l-16 -103h349l-26 -179h-536l21 139h-231l-97 -139h-203l547 739l2 -1l-1 1h611zM540 557l-179 -255h141z" />
<glyph unicode="&#xc7;" horiz-adv-x="755" d="M422 171q109 0 205 98l112 -127q-55 -61 -133 -101.5t-164 -49.5l-23 -40q44 -6 70.5 -35t20.5 -73q-8 -50 -55 -87q-46 -37 -123 -37q-62 0 -124 32l41 96q37 -21 82 -21q49 0 54 33q5 32 -52 32h-53l-3 31l41 74q-135 24 -210 128q-74 104 -54 254q15 114 80 200 t157 130t199 44q97 0 174.5 -39t126.5 -109l-137 -123q-71 92 -175 92q-86 0 -151 -55q-65 -54 -77 -144q-12 -89 37 -146q50 -57 134 -57z" />
<glyph unicode="&#xc8;" horiz-adv-x="659" d="M472 991l39 -195h-166l-72 195h199zM575 0h-533l110 739h534l-26 -173h-346l-16 -109h320l-25 -172h-320l-18 -112h345z" />
<glyph unicode="&#xc9;" horiz-adv-x="659" d="M505 794h-171l96 195h205zM575 0h-533l110 739h534l-26 -173h-346l-16 -109h320l-25 -172h-320l-18 -112h345z" />
<glyph unicode="&#xca;" horiz-adv-x="659" d="M362 795h-175l194 197h143l134 -197h-170l-48 90zM575 0h-533l110 739h534l-26 -173h-346l-16 -109h320l-25 -172h-320l-18 -112h345z" />
<glyph unicode="&#xcb;" horiz-adv-x="659" d="M305 789q-45 0 -71 30.5t-19 75.5q6 40 37.5 67t72.5 27q44 0 70 -30.5t19 -74.5q-6 -42 -37 -68.5t-72 -26.5zM547 789q-45 0 -71 30.5t-19 75.5q7 40 38.5 67t71.5 27q44 0 70.5 -30.5t19.5 -74.5q-6 -42 -37 -68.5t-73 -26.5zM575 0h-533l110 739h534l-26 -173h-346 l-16 -109h320l-25 -172h-320l-18 -112h345z" />
<glyph unicode="&#xcc;" horiz-adv-x="334" d="M296 992l39 -195h-166l-72 195h199zM43 0l110 739h188l-110 -739h-188z" />
<glyph unicode="&#xcd;" horiz-adv-x="334" d="M334 796h-171l96 195h205zM42 0l110 739h188l-110 -739h-188z" />
<glyph unicode="&#xce;" horiz-adv-x="334" d="M192 797h-175l194 197h143l134 -197h-170l-48 90zM43 0l110 739h188l-110 -739h-188z" />
<glyph unicode="&#xcf;" horiz-adv-x="334" d="M132 790q-46 0 -72 30.5t-19 76.5q6 41 38 68t73 27q44 0 70.5 -31t19.5 -75q-6 -42 -37.5 -69t-72.5 -27zM376 790q-45 0 -71 30.5t-19 76.5q6 41 38 68t72 27q45 0 71.5 -31t19.5 -75q-6 -42 -37.5 -69t-73.5 -27zM43 0l110 739h188l-110 -739h-188z" />
<glyph unicode="&#xd0;" horiz-adv-x="792" d="M165 739h281q180 0 267 -102q88 -100 65 -275q-23 -170 -131 -266t-282 -96h-310l44 297h-65l22 146h65zM586 377q12 81 -24 132t-114 51h-123l-18 -117h176l-22 -146h-175l-18 -118h105q93 0 147 57t66 141z" />
<glyph unicode="&#xd1;" horiz-adv-x="806" d="M351 782l-112 67q45 70 86.5 100.5t94.5 30.5q39 0 79 -23q40 -22 51 -22q36 0 78 57l112 -65q-77 -131 -167 -131q-36 0 -79 23q-42 24 -57 24q-46 0 -86 -61zM568 338l60 401h184l-110 -739h-141l-277 396l-59 -396h-183l110 739h134z" />
<glyph unicode="&#xd2;" d="M553 991l39 -195h-166l-72 195h199zM392 -12q-169 0 -263 112t-70 277q25 162 150 269q125 106 290 106q168 0 263 -113q94 -112 70 -274q-24 -161 -149 -269t-291 -108zM411 173q81 0 149 56q67 57 79 144q13 84 -33 139q-45 55 -126 55q-85 0 -150 -58 q-66 -57 -78 -144q-12 -84 33 -138t126 -54z" />
<glyph unicode="&#xd3;" d="M596 794h-171l96 195h205zM392 -12q-169 0 -263 112t-70 277q25 162 150 269q125 106 290 106q168 0 263 -113q94 -112 70 -274q-24 -161 -149 -269t-291 -108zM411 173q81 0 149 56q67 57 79 144q13 84 -33 139q-45 55 -126 55q-85 0 -150 -58q-66 -57 -78 -144 q-12 -84 33 -138t126 -54z" />
<glyph unicode="&#xd4;" d="M455 795h-175l194 197h143l134 -197h-170l-48 90zM392 -12q-169 0 -263 112t-70 277q25 162 150 269q125 106 290 106q168 0 263 -113q94 -112 70 -274q-24 -161 -149 -269t-291 -108zM411 173q81 0 149 56q67 57 79 144q13 84 -33 139q-45 55 -126 55q-85 0 -150 -58 q-66 -57 -78 -144q-12 -84 33 -138t126 -54z" />
<glyph unicode="&#xd5;" d="M373 776l-112 67q45 70 86.5 100.5t94.5 30.5q39 0 79 -23q40 -22 51 -22q36 0 78 57l112 -65q-77 -131 -167 -131q-36 0 -79 23q-42 24 -57 24q-46 0 -86 -61zM392 -12q-169 0 -263 112t-70 277q25 162 150 269q125 106 290 106q168 0 263 -113q94 -112 70 -274 q-24 -161 -149 -269t-291 -108zM411 173q81 0 149 56q67 57 79 144q13 84 -33 139q-45 55 -126 55q-85 0 -150 -58q-66 -57 -78 -144q-12 -84 33 -138t126 -54z" />
<glyph unicode="&#xd6;" d="M392 789q-45 0 -71 30.5t-19 75.5q6 40 37.5 67t72.5 27q44 0 70 -30.5t19 -74.5q-6 -42 -37 -68.5t-72 -26.5zM634 789q-45 0 -71 30.5t-19 75.5q7 40 38.5 67t71.5 27q44 0 70.5 -30.5t19.5 -74.5q-6 -42 -37 -68.5t-73 -26.5zM392 -12q-169 0 -263 112t-70 277 q25 162 150 269q125 106 290 106q168 0 263 -113q94 -112 70 -274q-24 -161 -149 -269t-291 -108zM411 173q81 0 149 56q67 57 79 144q13 84 -33 139q-45 55 -126 55q-85 0 -150 -58q-66 -57 -78 -144q-12 -84 33 -138t126 -54z" />
<glyph unicode="&#xd7;" horiz-adv-x="586" d="M494 595l96 -106l-171 -150l126 -147l-121 -112l-129 150l-171 -150l-91 112l169 148l-124 145l120 111l127 -148z" />
<glyph unicode="&#xd8;" d="M752 803l92 -70l-81 -95q93 -112 69 -273t-149 -269t-291 -108q-84 0 -157 32l-76 -89l-92 70l74 86q-108 114 -82 290q25 162 150 269q125 106 290 106q97 0 174 -41zM252 365q-10 -68 22 -122l268 314q-30 10 -62 10q-85 0 -150 -58q-66 -57 -78 -144zM639 373 q9 58 -12 106l-258 -302q15 -4 42 -4q81 0 149 56q67 57 79 144z" />
<glyph unicode="&#xd9;" horiz-adv-x="740" d="M501 991l39 -195h-166l-72 195h199zM339 -13q-61 0 -111.5 17.5t-90 53t-56 98.5t-3.5 147l66 436h188l-68 -448q-9 -61 16.5 -92.5t76.5 -31.5q54 0 92.5 34.5t49.5 100.5l66 437h189l-67 -437q-26 -173 -132 -247q-94 -68 -216 -68z" />
<glyph unicode="&#xda;" horiz-adv-x="740" d="M537 794h-171l96 195h205zM339 -13q-61 0 -111.5 17.5t-90 53t-56 98.5t-3.5 147l66 436h188l-68 -448q-9 -61 16.5 -92.5t76.5 -31.5q54 0 92.5 34.5t49.5 100.5l66 437h189l-67 -437q-26 -173 -132 -247q-94 -68 -216 -68z" />
<glyph unicode="&#xdb;" horiz-adv-x="740" d="M395 795h-175l194 197h143l134 -197h-170l-48 90zM339 -13q-61 0 -111.5 17.5t-90 53t-56 98.5t-3.5 147l66 436h188l-68 -448q-9 -61 16.5 -92.5t76.5 -31.5q54 0 92.5 34.5t49.5 100.5l66 437h189l-67 -437q-26 -173 -132 -247q-94 -68 -216 -68z" />
<glyph unicode="&#xdc;" horiz-adv-x="740" d="M341 789q-45 0 -71 30.5t-19 75.5q6 40 37.5 67t72.5 27q44 0 70 -30.5t19 -74.5q-6 -42 -37 -68.5t-72 -26.5zM583 789q-45 0 -71 30.5t-19 75.5q7 40 38.5 67t71.5 27q44 0 70.5 -30.5t19.5 -74.5q-6 -42 -37 -68.5t-73 -26.5zM339 -13q-61 0 -111.5 17.5t-90 53 t-56 98.5t-3.5 147l66 436h188l-68 -448q-9 -61 16.5 -92.5t76.5 -31.5q54 0 92.5 34.5t49.5 100.5l66 437h189l-67 -437q-26 -173 -132 -247q-94 -68 -216 -68z" />
<glyph unicode="&#xdd;" horiz-adv-x="711" d="M523 794h-171l96 195h205zM566 739h221l-332 -491l-38 -248h-186l37 248l-182 491h218l87 -283z" />
<glyph unicode="&#xde;" horiz-adv-x="676" d="M324 635h97q145 0 204 -75q60 -73 46 -185q-15 -117 -95 -182t-224 -65h-104l-19 -128h-187l110 739h187zM480 383q5 36 -15.5 58.5t-58.5 22.5h-108l-25 -168h79q118 0 128 87z" />
<glyph unicode="&#xdf;" horiz-adv-x="685" d="M668 550q-17 -107 -124 -158q62 -22 91 -78t18 -126q-13 -94 -89 -150t-188 -56q-74 0 -132 24l43 148q29 -15 78 -15q45 0 75.5 20.5t35.5 56.5q6 43 -30.5 67.5t-107.5 26.5l15 137q52 -3 88.5 23t42.5 65q5 34 -15.5 56t-59.5 22q-54 0 -91.5 -43t-47.5 -114l-95 -633 h-177l95 645q12 86 48 151.5t86 99.5q94 65 201 65q120 0 187 -69q68 -69 53 -165z" />
<glyph unicode="&#xe0;" horiz-adv-x="689" d="M446 813l36 -183h-155l-67 183h186zM510 501l8 51h167l-83 -552h-166l7 47q-76 -61 -171 -61q-120 0 -185 86q-64 86 -46 213q18 128 106 204q89 77 206 77q98 0 157 -65zM328 147q55 0 96 38q43 40 50 94q7 52 -24 89t-84 37q-54 0 -95 -36q-41 -35 -50 -87 q-10 -55 20 -96q30 -39 87 -39z" />
<glyph unicode="&#xe1;" horiz-adv-x="689" d="M416 812h193l-122 -183h-161zM510 501l8 51h167l-83 -552h-166l7 47q-76 -61 -171 -61q-120 0 -185 86q-64 86 -46 213q18 128 106 204q89 77 206 77q98 0 157 -65zM328 147q55 0 96 38q43 40 50 94q7 52 -24 89t-84 37q-54 0 -95 -36q-41 -35 -50 -87q-10 -55 20 -96 q30 -39 87 -39z" />
<glyph unicode="&#xe2;" horiz-adv-x="689" d="M465 629l-45 84l-73 -84h-164l182 185h134l126 -185h-160zM510 501l8 51h167l-83 -552h-166l7 47q-76 -61 -171 -61q-120 0 -185 86q-64 86 -46 213q18 128 106 204q89 77 206 77q98 0 157 -65zM328 147q55 0 96 38q43 40 50 94q7 52 -24 89t-84 37q-54 0 -95 -36 q-41 -35 -50 -87q-10 -55 20 -96q30 -39 87 -39z" />
<glyph unicode="&#xe3;" horiz-adv-x="689" d="M373 669q-44 0 -83 -58l-108 64q44 67 83.5 96.5t90.5 29.5q39 0 76 -22q38 -21 49 -21q35 0 75 54l108 -62q-74 -126 -161 -126q-35 0 -75 22q-41 23 -55 23zM510 501l8 51h167l-83 -552h-166l7 47q-76 -61 -171 -61q-120 0 -185 86q-64 86 -46 213q18 128 106 204 q89 77 206 77q98 0 157 -65zM328 147q55 0 96 38q43 40 50 94q7 52 -24 89t-84 37q-54 0 -95 -36q-41 -35 -50 -87q-10 -55 20 -96q30 -39 87 -39z" />
<glyph unicode="&#xe4;" horiz-adv-x="689" d="M293 617q-43 0 -68 29t-18 72q6 39 36 64.5t69 25.5q42 0 67.5 -29t18.5 -71q-6 -40 -36 -65.5t-69 -25.5zM525 617q-43 0 -68 29t-18 72q6 39 36 64.5t69 25.5q42 0 67.5 -29t18.5 -71q-6 -40 -36 -65.5t-69 -25.5zM510 501l8 51h167l-83 -552h-166l7 47 q-76 -61 -171 -61q-120 0 -185 86q-64 86 -46 213q18 128 106 204q89 77 206 77q98 0 157 -65zM328 147q55 0 96 38q43 40 50 94q7 52 -24 89t-84 37q-54 0 -95 -36q-41 -35 -50 -87q-10 -55 20 -96q30 -39 87 -39z" />
<glyph unicode="&#xe5;" horiz-adv-x="689" d="M404 611q-61 0 -99 41q-37 40 -28 100q7 58 56 99q50 41 109 41q60 0 98 -42q37 -41 29 -101q-10 -58 -58 -98q-46 -40 -107 -40zM413 701q21 0 39 15.5t21 37.5q3 20 -9 33.5t-32 13.5q-22 0 -39.5 -14.5t-20.5 -35.5t9 -35.5t32 -14.5zM510 501l8 51h167l-83 -552h-166 l7 47q-76 -61 -171 -61q-120 0 -185 86q-64 86 -46 213q18 128 106 204q89 77 206 77q98 0 157 -65zM328 147q55 0 96 38q43 40 50 94q7 52 -24 89t-84 37q-54 0 -95 -36q-41 -35 -50 -87q-10 -55 20 -96q30 -39 87 -39z" />
<glyph unicode="&#xe6;" horiz-adv-x="968" d="M720 566q114 0 182 -71t49 -201q-4 -42 -17 -72l-380 3q11 -96 112 -96q80 0 163 55l62 -119q-116 -77 -248 -77q-149 0 -212 99q-89 -99 -225 -99q-102 0 -150 53q-47 54 -36 131q24 170 313 170h69q-7 85 -107 85q-81 0 -167 -48l-44 123q50 30 114.5 47t121.5 17 q130 0 185 -82q89 82 215 82zM576 342l229 1q1 32 -18 53.5t-48 26.5t-60 -0.5t-60 -27t-43 -53.5zM236 129q43 0 83 24.5t63 72.5l-80 1q-116 0 -122 -52q-2 -21 13 -33.5t43 -12.5z" />
<glyph unicode="&#xe7;" horiz-adv-x="607" d="M318 150q39 0 74.5 20t56.5 53l131 -90q-81 -125 -237 -143l-23 -39q44 -6 70.5 -35t20.5 -73q-8 -50 -55 -87q-46 -37 -123 -37q-62 0 -124 32l41 96q38 -21 82 -21q49 0 54 33q5 32 -52 32h-53l-3 31l42 75q-97 24 -145 101q-46 78 -33 184q16 127 106 205 q89 79 216 79q92 0 158.5 -41.5t93.5 -121.5l-150 -71q-33 70 -107 70q-55 0 -96 -36t-48 -92q-7 -53 22 -88.5t81 -35.5z" />
<glyph unicode="&#xe8;" horiz-adv-x="638" d="M435 812l36 -183h-155l-67 183h186zM371 566q126 0 197 -77t52 -207q-6 -38 -15 -63h-398q15 -87 118 -87q92 0 177 53l58 -124q-113 -73 -249 -73q-98 0 -165 42.5t-92 109t-12 145.5q18 127 108 204q92 77 221 77zM364 425q-96 0 -136 -85h233q-4 40 -29.5 62.5 t-67.5 22.5z" />
<glyph unicode="&#xe9;" horiz-adv-x="638" d="M388 812h193l-122 -183h-161zM371 566q126 0 197 -77t52 -207q-6 -38 -15 -63h-398q15 -87 118 -87q92 0 177 53l58 -124q-113 -73 -249 -73q-98 0 -165 42.5t-92 109t-12 145.5q18 127 108 204q92 77 221 77zM364 425q-96 0 -136 -85h233q-4 40 -29.5 62.5t-67.5 22.5z " />
<glyph unicode="&#xea;" horiz-adv-x="638" d="M446 633l-45 84l-73 -84h-164l182 185h134l126 -185h-160zM371 566q126 0 197 -77t52 -207q-6 -38 -15 -63h-398q15 -87 118 -87q92 0 177 53l58 -124q-113 -73 -249 -73q-98 0 -165 42.5t-92 109t-12 145.5q18 127 108 204q92 77 221 77zM364 425q-96 0 -136 -85h233 q-4 40 -29.5 62.5t-67.5 22.5z" />
<glyph unicode="&#xeb;" horiz-adv-x="638" d="M277 612q-43 0 -68 29t-18 72q6 39 36 64.5t69 25.5q42 0 67.5 -29t18.5 -71q-6 -40 -36 -65.5t-69 -25.5zM509 612q-43 0 -68 29t-18 72q6 39 36 64.5t69 25.5q42 0 67.5 -29t18.5 -71q-6 -40 -36 -65.5t-69 -25.5zM371 566q126 0 197 -77t52 -207q-6 -38 -15 -63h-398 q15 -87 118 -87q92 0 177 53l58 -124q-113 -73 -249 -73q-98 0 -165 42.5t-92 109t-12 145.5q18 127 108 204q92 77 221 77zM364 425q-96 0 -136 -85h233q-4 40 -29.5 62.5t-67.5 22.5z" />
<glyph unicode="&#xec;" horiz-adv-x="292" d="M250 812l36 -183h-155l-67 183h186zM288 552l-82 -552h-177l82 552h177z" />
<glyph unicode="&#xed;" horiz-adv-x="284" d="M286 629h-161l90 183h193zM284 552l-82 -552h-177l82 552h177z" />
<glyph unicode="&#xee;" horiz-adv-x="288" d="M151 631h-164l182 185h134l126 -185h-160l-45 84zM288 552l-82 -552h-177l82 552h177z" />
<glyph unicode="&#xef;" horiz-adv-x="288" d="M98 615q-43 0 -68 29t-18 72q6 39 36 64.5t69 25.5q42 0 67.5 -29t18.5 -71q-6 -40 -36 -65.5t-69 -25.5zM330 615q-43 0 -68 29t-18 72q6 39 36 64.5t69 25.5q42 0 67.5 -29t18.5 -71q-6 -40 -36 -65.5t-69 -25.5zM288 552l-82 -552h-177l82 552h177z" />
<glyph unicode="&#xf0;" horiz-adv-x="654" d="M629 747l-76 -52q112 -172 88 -356q-21 -150 -122 -251q-100 -100 -237 -100q-124 0 -191 79t-52 194q15 111 98 178t183 67q105 0 152 -77q-15 95 -64 168l-83 -57l-53 75l79 54q-44 47 -83 82l135 112q47 -39 95 -95l83 57zM438 263q5 45 -21.5 75t-71.5 30 q-49 0 -86 -33q-37 -32 -43 -83q-5 -47 20.5 -77t70.5 -30q49 0 87 35q39 35 44 83z" />
<glyph unicode="&#xf1;" horiz-adv-x="664" d="M278 614l-108 64q44 67 83.5 96.5t90.5 29.5q39 0 76 -22q38 -21 49 -21q35 0 75 54l108 -62q-74 -126 -161 -126q-35 0 -75 22q-41 23 -55 23q-44 0 -83 -58zM201 0h-176l82 552h173l-12 -76q27 40 77 65.5t109 25.5q89 0 142 -62q54 -61 36 -179l-49 -326h-177l44 297 q8 53 -12.5 81t-65.5 28q-51 0 -86.5 -36.5t-45.5 -101.5z" />
<glyph unicode="&#xf2;" horiz-adv-x="661" d="M437 812l36 -183h-155l-67 183h186zM302 -15q-137 0 -210 88t-52 215q21 121 116 201q94 79 221 79q141 0 213 -94q73 -94 43 -227q-25 -117 -119 -190q-93 -72 -212 -72zM318 151q52 0 93 36q43 36 50 87q11 54 -19 91q-30 38 -84 38q-51 0 -91 -33t-51 -84 q-13 -55 17 -96q30 -39 85 -39z" />
<glyph unicode="&#xf3;" horiz-adv-x="661" d="M468 629h-161l90 183h193zM302 -15q-137 0 -210 88t-52 215q21 121 116 201q94 79 221 79q141 0 213 -94q73 -94 43 -227q-25 -117 -119 -190q-93 -72 -212 -72zM318 151q52 0 93 36q43 36 50 87q11 54 -19 91q-30 38 -84 38q-51 0 -91 -33t-51 -84q-13 -55 17 -96 q30 -39 85 -39z" />
<glyph unicode="&#xf4;" horiz-adv-x="661" d="M331 630h-164l182 185h134l126 -185h-160l-45 84zM302 -15q-137 0 -210 88t-52 215q21 121 116 201q94 79 221 79q141 0 213 -94q73 -94 43 -227q-25 -117 -119 -190q-93 -72 -212 -72zM318 151q52 0 93 36q43 36 50 87q11 54 -19 91q-30 38 -84 38q-51 0 -91 -33 t-51 -84q-13 -55 17 -96q30 -39 85 -39z" />
<glyph unicode="&#xf5;" horiz-adv-x="661" d="M274 613l-108 64q44 67 83.5 96.5t90.5 29.5q39 0 76 -22q38 -21 49 -21q35 0 75 54l108 -62q-74 -126 -161 -126q-35 0 -75 22q-41 23 -55 23q-44 0 -83 -58zM302 -15q-137 0 -210 88t-52 215q21 121 116 201q94 79 221 79q141 0 213 -94q73 -94 43 -227 q-25 -117 -119 -190q-93 -72 -212 -72zM318 151q52 0 93 36q43 36 50 87q11 54 -19 91q-30 38 -84 38q-51 0 -91 -33t-51 -84q-13 -55 17 -96q30 -39 85 -39z" />
<glyph unicode="&#xf6;" horiz-adv-x="661" d="M294 616q-43 0 -68 29t-18 72q6 39 36 64.5t69 25.5q42 0 67.5 -29t18.5 -71q-6 -40 -36 -65.5t-69 -25.5zM526 616q-43 0 -68 29t-18 72q6 39 36 64.5t69 25.5q42 0 67.5 -29t18.5 -71q-6 -40 -36 -65.5t-69 -25.5zM302 -15q-137 0 -210 88t-52 215q21 121 116 201 q94 79 221 79q141 0 213 -94q73 -94 43 -227q-25 -117 -119 -190q-93 -72 -212 -72zM318 151q52 0 93 36q43 36 50 87q11 54 -19 91q-30 38 -84 38q-51 0 -91 -33t-51 -84q-13 -55 17 -96q30 -39 85 -39z" />
<glyph unicode="&#xf7;" horiz-adv-x="555" d="M323 462q-42 0 -66 27.5t-17 68.5q4 33 31 55.5t62 22.5q38 0 61.5 -27.5t17.5 -66.5q-5 -34 -31 -57t-58 -23zM530 280h-485l22 146h485zM265 71q-41 0 -65 27.5t-18 68.5q5 33 32 55.5t62 22.5q37 0 60.5 -28t18.5 -66q-5 -35 -31 -57.5t-59 -22.5z" />
<glyph unicode="&#xf8;" horiz-adv-x="661" d="M638 567l-63 -75q90 -95 58 -245q-25 -117 -119 -190q-93 -72 -212 -72q-72 0 -130 27l-67 -80l-65 50l65 77q-88 88 -65 229q21 121 116 201q94 79 221 79q71 0 130 -27l62 74zM216 286q-10 -46 9 -83l164 196q-12 4 -31 4q-51 0 -91 -33t-51 -84zM461 274q7 39 -8 73 l-162 -193q13 -3 27 -3q52 0 93 36q43 36 50 87z" />
<glyph unicode="&#xf9;" horiz-adv-x="629" d="M419 812l36 -183h-155l-67 183h186zM281 -14q-123 0 -184 71t-41 200l44 295h177l-47 -312q-6 -42 13 -67.5t58 -25.5q90 0 108 107l45 298h177l-44 -293q-41 -273 -306 -273z" />
<glyph unicode="&#xfa;" horiz-adv-x="629" d="M455 629h-161l90 183h193zM281 -14q-123 0 -184 71t-41 200l44 295h177l-47 -312q-6 -42 13 -67.5t58 -25.5q90 0 108 107l45 298h177l-44 -293q-41 -273 -306 -273z" />
<glyph unicode="&#xfb;" horiz-adv-x="629" d="M318 633h-164l182 185h134l126 -185h-160l-45 84zM281 -14q-123 0 -184 71t-41 200l44 295h177l-47 -312q-6 -42 13 -67.5t58 -25.5q90 0 108 107l45 298h177l-44 -293q-41 -273 -306 -273z" />
<glyph unicode="&#xfc;" horiz-adv-x="629" d="M265 615q-43 0 -68 29t-18 72q6 39 36 64.5t69 25.5q42 0 67.5 -29t18.5 -71q-6 -40 -36 -65.5t-69 -25.5zM497 615q-43 0 -68 29t-18 72q6 39 36 64.5t69 25.5q42 0 67.5 -29t18.5 -71q-6 -40 -36 -65.5t-69 -25.5zM281 -14q-123 0 -184 71t-41 200l44 295h177l-47 -312 q-6 -42 13 -67.5t58 -25.5q90 0 108 107l45 298h177l-44 -293q-41 -273 -306 -273z" />
<glyph unicode="&#xfd;" horiz-adv-x="634" d="M387 812h193l-122 -183h-161zM332 236l157 316h192l-283 -528q-74 -136 -146.5 -197.5t-164.5 -61.5q-73 0 -123 36l53 140q31 -18 69 -18t66 20t57 62l5 8l-158 539h202z" />
<glyph unicode="&#xfe;" horiz-adv-x="685" d="M428 566q115 0 184 -83t53 -210q-17 -127 -98 -207q-82 -80 -201 -80q-100 0 -159 72l-41 -285h-176l148 990h174l-36 -250q68 53 152 53zM484 271q9 53 -21 93q-29 41 -87 41q-53 0 -92.5 -35t-47.5 -87q-9 -57 21.5 -96t86.5 -39q53 0 92.5 35t47.5 88z" />
<glyph unicode="&#xff;" horiz-adv-x="634" d="M275 616q-43 0 -68 29t-18 72q6 39 36 64.5t69 25.5q42 0 67.5 -29t18.5 -71q-6 -40 -36 -65.5t-69 -25.5zM507 616q-43 0 -68 29t-18 72q6 39 36 64.5t69 25.5q42 0 67.5 -29t18.5 -71q-6 -40 -36 -65.5t-69 -25.5zM332 236l157 316h192l-283 -528 q-74 -136 -146.5 -197.5t-164.5 -61.5q-73 0 -123 36l53 140q31 -18 69 -18t66 20t57 62l5 8l-158 539h202z" />
<glyph unicode="&#x152;" horiz-adv-x="1057" d="M1085 739l-26 -173h-347l-16 -109h320l-25 -172h-320l-17 -112h345l-26 -173h-522q-35 -3 -66 -3q-187 0 -270 108q-83 109 -58 277q24 168 130 263q106 97 296 97q39 0 72 -3h530zM252 375q-14 -85 23 -142q37 -58 134 -58q25 0 57 4l17 107l40 274q-31 4 -59 4 q-89 0 -144 -52t-68 -137z" />
<glyph unicode="&#x153;" horiz-adv-x="1060" d="M793 566q126 0 198 -77t51 -207q-6 -38 -15 -63h-397q14 -87 117 -87q92 0 177 53l58 -124q-113 -73 -249 -73q-139 0 -211 79q-92 -82 -220 -82q-137 0 -210 88t-52 215q21 121 116 201q94 79 221 79q125 0 196 -78q89 76 220 76zM786 425q-96 0 -136 -85h233 q-4 40 -28.5 62.5t-68.5 22.5zM318 151q52 0 93 36q43 36 50 87q11 54 -19 91q-30 38 -84 38q-51 0 -91 -33t-51 -84q-13 -55 17 -96q30 -39 85 -39z" />
<glyph unicode="&#x178;" horiz-adv-x="711" d="M325 789q-45 0 -71 30.5t-19 75.5q6 40 37.5 67t72.5 27q44 0 70 -30.5t19 -74.5q-6 -42 -37 -68.5t-72 -26.5zM567 789q-45 0 -71 30.5t-19 75.5q7 40 38.5 67t71.5 27q44 0 70.5 -30.5t19.5 -74.5q-6 -42 -37 -68.5t-73 -26.5zM566 739h221l-332 -491l-38 -248h-186 l37 248l-182 491h218l87 -283z" />
<glyph unicode="&#x2c6;" horiz-adv-x="551" d="M263 619h-164l182 185h134l126 -185h-160l-45 84z" />
<glyph unicode="&#x2dc;" horiz-adv-x="563" d="M213 611l-108 64q44 67 83.5 96.5t90.5 29.5q39 0 76 -22q37 -21 49 -21q34 0 75 54l108 -62q-73 -126 -161 -126q-36 0 -76 22q-41 23 -54 23q-44 0 -83 -58z" />
<glyph unicode="&#x2000;" horiz-adv-x="538" />
<glyph unicode="&#x2001;" horiz-adv-x="1076" />
<glyph unicode="&#x2002;" horiz-adv-x="538" />
<glyph unicode="&#x2003;" horiz-adv-x="1076" />
<glyph unicode="&#x2004;" horiz-adv-x="358" />
<glyph unicode="&#x2005;" horiz-adv-x="269" />
<glyph unicode="&#x2006;" horiz-adv-x="179" />
<glyph unicode="&#x2007;" horiz-adv-x="179" />
<glyph unicode="&#x2008;" horiz-adv-x="134" />
<glyph unicode="&#x2009;" horiz-adv-x="215" />
<glyph unicode="&#x200a;" horiz-adv-x="59" />
<glyph unicode="&#x2010;" horiz-adv-x="540" d="M483 195h-431l25 164h431z" />
<glyph unicode="&#x2011;" horiz-adv-x="540" d="M483 195h-431l25 164h431z" />
<glyph unicode="&#x2012;" horiz-adv-x="540" d="M483 195h-431l25 164h431z" />
<glyph unicode="&#x2013;" horiz-adv-x="723" d="M666 195h-614l25 164h614z" />
<glyph unicode="&#x2014;" horiz-adv-x="1042" d="M985 195h-933l25 164h933z" />
<glyph unicode="&#x2018;" horiz-adv-x="263" d="M220 698q31 -8 48.5 -35.5t13.5 -61.5q-6 -36 -35 -60t-66 -24q-48 0 -75 35.5t-19 87.5q17 107 193 215l47 -74q-84 -57 -107 -83z" />
<glyph unicode="&#x2019;" horiz-adv-x="261" d="M225 845q48 0 75.5 -35.5t19.5 -86.5q-17 -108 -193 -216l-47 73q80 54 107 84q-31 8 -49 36t-14 61q6 36 35.5 60t65.5 24z" />
<glyph unicode="&#x201a;" horiz-adv-x="261" d="M125 174q48 0 75.5 -35.5t19.5 -86.5q-17 -108 -193 -216l-47 73q80 54 107 84q-31 8 -49 36t-14 61q6 36 35.5 60t65.5 24z" />
<glyph unicode="&#x201c;" horiz-adv-x="524" d="M280 855l47 -74q-84 -57 -107 -83q31 -8 48.5 -35.5t13.5 -61.5q-6 -36 -35 -60t-66 -24q-48 0 -75 35.5t-19 87.5q17 107 193 215zM481 698q31 -8 48.5 -35.5t13.5 -61.5q-6 -36 -35 -60t-66 -24q-48 0 -75 35.5t-19 87.5q17 107 193 215l47 -74q-84 -57 -107 -83z" />
<glyph unicode="&#x201d;" horiz-adv-x="519" d="M226 848q48 0 75 -35.5t19 -87.5q-17 -107 -193 -215l-47 74q84 57 107 83q-31 8 -48.5 35.5t-13.5 61.5q6 36 35 60t66 24zM484 848q48 0 75 -35.5t19 -87.5q-17 -107 -193 -215l-47 74q84 57 107 83q-31 8 -48.5 35.5t-13.5 61.5q6 36 35 60t66 24z" />
<glyph unicode="&#x201e;" horiz-adv-x="519" d="M126 173q48 0 75 -35.5t19 -87.5q-17 -107 -193 -215l-47 74q84 57 107 83q-31 8 -48.5 35.5t-13.5 61.5q6 36 35 60t66 24zM383 173q48 0 75 -35.5t19 -87.5q-17 -107 -193 -215l-47 74q84 57 107 83q-31 8 -48.5 35.5t-13.5 61.5q6 36 35 60t66 24z" />
<glyph unicode="&#x2022;" horiz-adv-x="490" d="M76 344q11 78 72 130q61 54 137 54q82 0 130 -57q49 -55 37 -137q-10 -76 -72 -129q-61 -52 -140 -52t-127 55t-37 136z" />
<glyph unicode="&#x2026;" horiz-adv-x="781" d="M98 -12q-42 0 -66 27t-19 69q5 41 35.5 67.5t71.5 26.5q43 0 67.5 -29.5t16.5 -71.5q-7 -40 -36.5 -64.5t-69.5 -24.5zM358 -12q-42 0 -66 27t-19 69q5 41 35.5 67.5t71.5 26.5q43 0 67.5 -29.5t16.5 -71.5q-7 -40 -36.5 -64.5t-69.5 -24.5zM618 -12q-42 0 -66 27t-19 69 q5 41 35.5 67.5t71.5 26.5q43 0 67.5 -29.5t16.5 -71.5q-7 -40 -36.5 -64.5t-69.5 -24.5z" />
<glyph unicode="&#x202f;" horiz-adv-x="215" />
<glyph unicode="&#x2039;" horiz-adv-x="385" d="M326 88h-185l-102 203l159 203h193l-172 -203z" />
<glyph unicode="&#x203a;" horiz-adv-x="384" d="M361 291l-163 -203h-185l168 203l-111 203h193z" />
<glyph unicode="&#x205f;" horiz-adv-x="269" />
<glyph unicode="&#x20ac;" horiz-adv-x="778" d="M583 577q-107 0 -176 -81h286l-64 -107h-275l-2 -9q-1 -9 -2 -14q0 -2 -1 -9t-1 -9h263l-61 -107h-179q44 -77 146 -77q44 0 95 13q53 14 89 33l-23 -176q-37 -19 -97 -33q-59 -12 -112 -12q-122 0 -206 69q-83 69 -104 183h-131l59 107h67l3 25q3 9 3 16h-76l58 107h50 q52 116 156 186q103 70 229 70q66 0 130.5 -19t105.5 -51l-106 -144q-53 39 -124 39z" />
<glyph unicode="&#x2122;" horiz-adv-x="818" d="M110 739h289l-15 -96h-95l-37 -254h-99l38 254h-96zM604 564l143 175h83l-52 -350h-98l23 155l-94 -113h-44l-62 115l-23 -157h-98l52 350h82z" />
<glyph unicode="&#x25fc;" horiz-adv-x="550" d="M0 550h550v-550h-550v550z" />
<glyph unicode="&#xfb01;" horiz-adv-x="785" d="M725 803q45 0 71.5 -30.5t19.5 -75.5q-6 -41 -37.5 -68.5t-72.5 -27.5q-45 0 -72 30.5t-20 76.5q7 41 38.5 68t72.5 27zM335 557l-1 -5h190l-22 -146h-190l-60 -406h-175l59 406h-78l23 146h76l2 14q16 114 92 171q76 58 183 58q72 0 143 -36l-65 -131q-34 14 -63 14 q-46 0 -76.5 -22.5t-37.5 -62.5zM702 0h-177l82 552h177z" />
<glyph unicode="&#xfb02;" horiz-adv-x="750" d="M334 552h169l-22 -146h-169l-60 -406h-175l59 406h-78l23 146h76l2 14q15 111 87 170t178 59q73 0 142 -36l-65 -131q-34 14 -62 14q-42 0 -70 -22.5t-34 -62.5zM487 0l113 763h177l-114 -763h-176z" />
<glyph unicode="&#xfb03;" horiz-adv-x="1194" d="M1138 803q45 0 71.5 -30.5t19.5 -75.5q-6 -41 -37.5 -68.5t-72.5 -27.5q-45 0 -72 30.5t-20 76.5q7 41 38.5 68t72.5 27zM748 557l-1 -5h190l-23 -146h-189l-60 -406h-176l60 406h-236l-61 -406h-175l60 406h-79l23 146h77l2 14q18 113 91 171t187 58q82 0 152 -37 l-68 -130q-40 14 -66 14q-50 0 -81.5 -22.5t-38.5 -62.5l-1 -5h235l2 14q17 111 90.5 170t183.5 59q74 0 143 -36l-65 -131q-34 14 -62 14q-46 0 -76.5 -22.5t-37.5 -62.5zM1115 0h-177l82 552h177z" />
</font>
</defs>
</svg>
